<?xml version="1.0" standalone="no"?>
<!DOCTYPE svg PUBLIC "-//W3C//DTD SVG 20010904//EN"
 "http://www.w3.org/TR/2001/REC-SVG-20010904/DTD/svg10.dtd">
<svg version="1.0" xmlns="http://www.w3.org/2000/svg"
 width="300.000000pt" height="323.000000pt" viewBox="0 0 300.000000 323.000000"
 preserveAspectRatio="xMidYMid meet">
<metadata>
Created by potrace 1.13, written by Peter Selinger 2001-2015
</metadata>
<g transform="translate(0.000000,323.000000) scale(0.100000,-0.100000)"
fill="#000000" stroke="none">
<path d="M1035 3069 c-93 -16 -322 -53 -509 -83 -233 -37 -343 -59 -353 -69
-17 -17 -18 -13 82 -627 24 -146 49 -305 56 -354 7 -50 20 -97 29 -109 l17
-20 174 27 c96 15 293 47 439 71 146 24 305 49 354 56 50 7 97 20 109 29 l20
17 -47 294 c-26 162 -64 401 -85 531 -20 130 -43 244 -50 252 -17 21 -33 20
-236 -15z m63 -181 c7 -9 4 -111 -10 -323 -24 -368 -28 -386 -122 -481 -76
-77 -151 -109 -235 -101 -186 19 -228 229 -79 393 63 68 126 101 230 119 45 8
82 16 83 17 1 2 7 72 14 156 11 155 23 201 58 221 24 14 49 13 61 -1z"/>
<path d="M804 2361 c-110 -18 -144 -35 -174 -84 -42 -68 -9 -159 63 -172 40
-8 219 20 258 40 78 41 95 159 29 206 -38 26 -66 28 -176 10z"/>
<path d="M1586 2848 c-14 -20 -16 -89 -16 -554 0 -502 1 -532 18 -547 17 -15
70 -17 558 -17 407 0 543 3 552 12 9 9 12 147 12 560 0 531 -1 548 -19 558
-13 6 -205 10 -555 10 l-535 0 -15 -22z m620 -203 c55 -36 59 -56 62 -365 2
-157 7 -289 12 -294 6 -6 17 -2 30 9 31 28 27 -6 -6 -44 -31 -38 -53 -39 -92
-6 l-30 25 -39 -26 c-62 -42 -111 -24 -146 56 -16 35 -20 67 -20 146 0 131 17
170 119 261 73 65 74 67 74 115 0 64 -13 88 -48 88 -30 0 -106 -32 -116 -49
-9 -14 -26 -14 -26 -1 0 16 71 81 104 96 36 16 88 12 122 -11z"/>
<path d="M2132 2375 c-43 -53 -53 -95 -53 -225 1 -149 11 -181 55 -164 30 12
36 58 34 244 l-3 184 -33 -39z"/>
<path d="M417 1682 c-15 -17 -17 -70 -17 -558 0 -407 3 -543 12 -552 17 -17
1099 -17 1116 0 9 9 12 146 12 553 0 512 -1 543 -18 558 -17 15 -70 17 -554
17 -505 0 -536 -1 -551 -18z m583 -222 l0 -89 48 -3 c46 -3 47 -3 47 -38 l0
-34 -47 3 -48 3 0 -236 c0 -223 1 -237 20 -256 11 -11 33 -20 50 -20 27 0 30
-3 30 -34 0 -37 -12 -46 -61 -46 -44 0 -92 24 -114 56 -18 26 -20 52 -25 279
l-5 250 -27 3 c-25 3 -28 8 -28 38 0 31 2 34 30 34 l30 0 0 75 0 74 43 19 c23
11 45 17 50 15 4 -2 7 -44 7 -93z"/>
<path d="M1590 1680 c-20 -20 -20 -33 -20 -554 0 -473 2 -536 16 -550 14 -14
78 -16 558 -16 408 0 545 3 554 12 9 9 12 146 12 553 0 512 -1 543 -18 558
-17 15 -70 17 -550 17 -519 0 -533 -1 -552 -20z m692 -272 c80 -44 82 -53 88
-281 l5 -201 53 3 52 2 0 -41 0 -41 -87 3 -88 3 -3 48 -3 48 -50 -37 c-67 -49
-137 -74 -207 -74 -215 1 -283 235 -96 330 46 23 59 25 202 25 l152 0 0 45 c0
86 -47 120 -167 120 -55 0 -98 -7 -148 -24 -72 -25 -85 -23 -85 17 0 9 -1 20
-2 23 -2 4 15 13 37 21 135 48 272 53 347 11z"/>
<path d="M2024 1121 c-101 -25 -145 -105 -89 -165 13 -14 36 -31 50 -36 72
-28 185 5 265 76 43 40 50 51 50 83 l0 38 -67 6 c-84 8 -168 7 -209 -2z"/>
<path d="M1675 499 c-10 -15 3 -25 16 -12 7 7 7 13 1 17 -6 3 -14 1 -17 -5z"/>
<path d="M490 467 c0 -30 -3 -34 -20 -30 -11 3 -31 -2 -45 -11 -21 -14 -25
-24 -25 -69 0 -29 5 -58 12 -65 7 -7 34 -12 60 -12 l49 0 -3 107 c-2 74 -7
108 -15 111 -9 2 -13 -8 -13 -31z m0 -112 c0 -54 -1 -55 -29 -55 -30 0 -41 14
-41 55 0 41 11 55 41 55 28 0 29 -1 29 -55z"/>
<path d="M720 472 c0 -15 -6 -34 -12 -41 -10 -11 -10 -14 0 -18 8 -3 12 -27
12 -69 0 -36 4 -64 10 -64 6 0 10 28 10 64 0 59 2 65 23 68 25 3 25 23 -1 23
-12 0 -18 9 -20 33 -4 39 -22 43 -22 4z"/>
<path d="M991 460 c-10 -22 -15 -42 -10 -46 5 -3 9 -34 9 -70 0 -36 4 -64 10
-64 6 0 10 28 10 64 0 59 2 65 23 68 24 3 22 23 -3 23 -23 0 -18 29 8 40 29
13 28 25 -3 25 -19 0 -29 -9 -44 -40z"/>
<path d="M560 425 c0 -11 11 -15 39 -15 26 0 41 -5 45 -16 9 -24 9 -24 -29
-24 -44 0 -73 -36 -55 -69 9 -17 20 -21 60 -21 l50 0 0 64 c0 56 -3 67 -22 80
-29 21 -88 21 -88 1z m88 -102 c3 -20 -1 -23 -28 -23 -34 0 -52 26 -29 41 24
15 54 6 57 -18z"/>
<path d="M820 425 c0 -11 11 -15 39 -15 26 0 41 -5 45 -16 9 -24 9 -24 -27
-24 -47 0 -74 -31 -59 -65 10 -22 18 -25 62 -25 l50 0 0 64 c0 56 -3 67 -22
80 -29 21 -88 21 -88 1z m88 -102 c3 -20 -1 -23 -28 -23 -34 0 -52 26 -29 41
24 15 54 6 57 -18z"/>
<path d="M1100 420 c-13 -13 -20 -33 -20 -61 0 -58 14 -79 54 -79 44 0 61 22
61 77 0 35 -5 49 -24 64 -30 24 -46 24 -71 -1z m65 -65 c0 -40 -4 -50 -18 -53
-27 -5 -47 17 -47 52 0 38 17 58 45 54 17 -3 20 -11 20 -53z"/>
<path d="M1247 433 c-11 -11 -8 -153 3 -153 6 0 10 28 10 65 0 63 1 65 25 65
14 0 25 -4 25 -10 0 -5 5 -10 10 -10 18 0 11 29 -9 40 -22 11 -54 13 -64 3z"/>
<path d="M1375 415 c-17 -17 -25 -35 -25 -60 0 -61 14 -75 71 -75 31 0 48 4
44 10 -3 6 -24 10 -46 10 -35 0 -39 3 -39 24 0 22 5 25 42 28 52 4 61 26 24
63 -31 31 -41 31 -71 0z m63 -27 c3 -14 -3 -18 -27 -18 -29 0 -41 17 -24 34
13 13 48 1 51 -16z"/>
<path d="M1517 433 c-11 -11 -8 -153 3 -153 6 0 10 29 10 66 l0 65 33 -3 c32
-3 32 -3 35 -65 4 -86 22 -80 22 7 0 58 -3 71 -19 80 -22 11 -74 14 -84 3z"/>
<path d="M1677 433 c-11 -11 -8 -153 3 -153 6 0 10 33 10 80 0 80 -1 86 -13
73z"/>
<path d="M1757 433 c-11 -11 -8 -153 3 -153 6 0 10 29 10 66 l0 65 33 -3 c32
-3 32 -3 35 -65 4 -83 22 -81 22 1 0 45 -5 69 -16 80 -15 16 -75 22 -87 9z"/>
<path d="M1927 428 c-15 -11 -18 -25 -15 -78 l3 -65 40 -5 c32 -4 40 -9 40
-25 0 -16 -8 -21 -42 -23 -24 -2 -43 -7 -43 -13 0 -15 86 -11 99 5 8 9 11 48
9 112 l-3 99 -35 3 c-19 2 -43 -3 -53 -10z m73 -74 l0 -55 -32 3 c-30 3 -33 6
-36 42 -5 53 3 66 38 66 30 0 30 0 30 -56z"/>
<path d="M2080 420 c-23 -23 -28 -108 -8 -128 14 -14 98 -16 98 -2 0 6 -18 10
-39 10 -26 0 -41 5 -45 16 -10 25 2 34 45 34 37 0 39 2 39 29 0 20 -8 35 -22
45 -30 21 -44 20 -68 -4z m68 -32 c3 -15 -4 -18 -33 -18 -33 0 -35 2 -25 21
14 24 53 22 58 -3z"/>
<path d="M2214 427 c-9 -24 0 -152 11 -152 6 0 11 30 13 68 3 66 3 67 31 67
34 0 41 -14 41 -81 0 -27 5 -49 10 -49 6 0 10 28 10 64 0 56 -3 67 -22 80 -28
20 -87 21 -94 3z"/>
<path d="M2447 433 c-11 -11 -8 -153 3 -153 6 0 10 28 10 65 l0 65 35 0 35 0
0 -64 c0 -68 15 -96 26 -51 10 40 -4 118 -23 133 -18 13 -75 17 -86 5z"/>
<path d="M2622 424 c-18 -12 -22 -25 -22 -68 0 -60 12 -76 55 -76 43 0 55 16
55 76 0 43 -4 56 -22 68 -12 9 -27 16 -33 16 -6 0 -21 -7 -33 -16z m62 -30 c9
-22 7 -67 -3 -82 -4 -8 -19 -12 -32 -10 -20 2 -25 10 -27 42 -2 21 -1 44 2 52
7 19 52 18 60 -2z"/>
<path d="M2372 291 c2 -7 7 -12 11 -12 12 1 9 15 -3 20 -7 2 -11 -2 -8 -8z"/>
</g>
</svg>
